<?xml version="1.0" standalone="no"?>
<!DOCTYPE svg PUBLIC "-//W3C//DTD SVG 20010904//EN"
 "http://www.w3.org/TR/2001/REC-SVG-20010904/DTD/svg10.dtd">
<svg version="1.0" xmlns="http://www.w3.org/2000/svg"
 width="16pt" height="16.000000pt" viewBox="0 0 240.000000 240.000000"
 preserveAspectRatio="xMidYMid meet">
<metadata>
Created by potrace 1.10, written by Peter Selinger 2001-2011
</metadata>
<g transform="translate(0.000000,240.000000) scale(0.100000,-0.100000)"
fill="#ffffff" stroke="none">
<path d="M1600 2169 c-158 -16 -304 -121 -379 -270 -40 -80 -55 -157 -48 -252
l5 -78 -61 7 c-157 16 -356 73 -488 139 -118 60 -252 158 -359 262 -71 69
-107 98 -112 90 -23 -35 -49 -127 -54 -190 -13 -145 38 -281 143 -386 l64 -64
-46 6 c-26 4 -73 18 -106 31 l-59 24 0 -43 c0 -24 9 -71 20 -106 45 -147 157
-265 298 -315 28 -10 52 -22 52 -25 0 -11 -115 -20 -159 -13 -41 7 -41 7 -32
-19 26 -67 59 -116 115 -172 71 -72 149 -113 254 -135 l75 -16 -54 -36 c-162
-107 -316 -155 -529 -167 l-125 -6 113 -57 c205 -104 393 -148 629 -149 406 0
738 139 1006 420 177 186 310 443 362 696 19 92 37 289 29 320 -4 16 9 32 60
73 55 45 176 178 176 195 0 3 -30 -5 -67 -18 -75 -25 -182 -49 -189 -42 -2 2
14 16 35 32 48 33 112 113 140 175 11 24 19 46 17 47 -2 2 -36 -12 -78 -31
-41 -19 -107 -44 -148 -55 l-74 -21 -34 28 c-128 102 -239 136 -392 121z"/>
</g>
</svg>
